# xmcd
#
# Track frame offsets:
# 150
# 10085
# 23349
# 37228
# 50905
# 64328
# 77745
# 91326
# 102260
# 115866
# 128566
# 143808
# 157320
# 170440
# 180715
# 195135
# 208739
# 222562
# 236115
# 249600
# 262535
# 276060
# 290563
# 303232
# 316758
#
# Disc length: 4374 seconds
#
#
# Revision: 0
# Processed by: cddbd v1.5.1PL2 Copyright (c) Steve Scherf et al.
# Submitted via: FreeRIP 2.943 
#
DISCID=63111419
DTITLE=Country - Country Music
DYEAR=2002
DGENRE=Country
TTITLE0=Pit Bulls Chains Saws - Bellamy Brothers
TTITLE1=All up to you - Steve Haggard
TTITLE2=Back in America - Western Flyer
TTITLE3=Cry behind the Wheel - Bob Woodruff
TTITLE4=A room with a view - Gretchen Peters
TTITLE5=Better love nest time - Caryl Mac Parker
TTITLE6=Independent Girl - Joe Nichols
TTITLE7=Too much too little - Don Cox
TTITLE8=Play rubi Play - Clinton Gregory
TTITLE9=Eyes in the back of her heart - Bryan Smith
TTITLE10=Baker Street - Bob Reeves
TTITLE11=Americam Pie - Donaldo Wood
TTITLE12=No more troubles - Filip Mark
TTITLE13=Agasint the grain - Thomas Bubbit
TTITLE14=Back on the chain gang - Anne Bachman
TTITLE15=All for reason - Gary Barnes
TTITLE16=Better things to do - Cristhie Gardyn
TTITLE17=Carolina in my mind - John Werner
TTITLE18=I can see clearly now - Billy River
TTITLE19=Blame it on my heart - Mag Lyne
TTITLE20=Living on a player - P.B. Reed
TTITLE21=Amy's back in Austin - Barney Wildd
TTITLE22=Live until i die - Leslie Collins
TTITLE23=Girl in Texas - Jay Clinton
TTITLE24=Crimson and clover - Peter Hill
EXTD=Diversos cantores. Lançamento da Paradoxx
EXTT0=
EXTT1=
EXTT2=
EXTT3=
EXTT4=
EXTT5=
EXTT6=
EXTT7=
EXTT8=
EXTT9=
EXTT10=
EXTT11=
EXTT12=
EXTT13=
EXTT14=
EXTT15=
EXTT16=
EXTT17=
EXTT18=
EXTT19=
EXTT20=
EXTT21=
EXTT22=
EXTT23=
EXTT24=
PLAYORDER=
